<svg width="1369" height="273" viewBox="0 0 1369 273" fill="none" xmlns="http://www.w3.org/2000/svg">
<path fill-rule="evenodd" clip-rule="evenodd" d="M149.138 145.094H60.9541V193.358C40.2309 188.566 20.2218 183.739 0.96875 178.931V0.171875H60.9541V98.9512H149.138V0.171875H208.952V224.161C188.544 220.388 168.597 216.503 149.138 212.539V145.094ZM330.102 244.22C302.268 240.153 275.086 235.805 248.611 231.244C247.146 229.564 245.775 227.792 244.499 225.929C238.802 217.498 235.954 207.813 235.954 196.876C235.954 187.306 237.663 178.761 241.081 171.241C244.613 163.722 249.911 157.341 256.975 152.101C264.038 146.86 273.039 142.872 283.977 140.138C294.914 137.403 307.788 136.036 322.6 136.036H340.373V126.295C340.373 121.054 339.632 116.554 338.151 112.794C336.67 109.034 334.335 106.129 331.145 104.078C327.954 101.913 323.682 100.831 318.327 100.831C313.998 100.831 310.295 101.572 307.219 103.053C304.143 104.534 301.807 106.756 300.212 109.718C298.617 112.68 297.819 116.44 297.819 120.997H240.227C240.227 112.452 242.106 104.534 245.866 97.2422C249.74 89.8366 255.209 83.3994 262.272 77.9307C269.45 72.4619 277.995 68.2464 287.907 65.2842C297.933 62.208 309.099 60.6699 321.403 60.6699C336.101 60.6699 349.203 63.1195 360.71 68.0186C372.331 72.9176 381.503 80.2663 388.225 90.0645C394.947 99.7487 398.308 111.939 398.308 126.637V202.345C398.308 214.422 398.991 223.593 400.358 229.859C401.726 236.012 403.662 241.424 406.169 246.095V249H364.095C358.494 248.243 352.917 247.475 347.365 246.695C345.6 242.532 344.161 237.772 343.048 232.414C341.125 234.798 338.98 237.079 336.613 239.259C334.652 241.061 332.482 242.714 330.102 244.22ZM340.373 196.528V166.798H322.258C316.903 166.798 312.346 167.538 308.586 169.02C304.94 170.501 301.978 172.551 299.699 175.172C297.535 177.678 295.939 180.527 294.914 183.717C294.003 186.907 293.547 190.268 293.547 193.8C293.547 197.218 294.344 200.294 295.939 203.028C297.648 205.649 299.927 207.7 302.775 209.181C305.624 210.662 308.814 211.402 312.346 211.402C318.726 211.402 324.138 210.206 328.581 207.813C333.138 205.307 336.613 202.288 339.006 198.756C339.516 198.003 339.972 197.26 340.373 196.528ZM620.988 272.688C601.606 271.753 582.404 270.628 563.396 269.329V64.0879H617.058L618.94 81.1133C623.302 75.7161 628.314 71.2943 633.977 67.8477C641.952 63.0625 651.465 60.6699 662.517 60.6699C674.252 60.6699 684.562 62.8916 693.449 67.335C702.45 71.7783 709.969 78.1585 716.008 86.4756C722.16 94.6787 726.774 104.534 729.851 116.041C732.927 127.548 734.465 140.309 734.465 154.322V157.911C734.465 171.355 732.927 183.831 729.851 195.338C726.774 206.845 722.217 216.871 716.179 225.416C710.14 233.961 702.621 240.626 693.62 245.411C684.733 250.082 674.423 252.418 662.688 252.418C651.636 252.418 642.123 249.968 634.147 245.069C629.271 242.074 624.885 238.376 620.988 233.975V272.688ZM1232.73 230.43C1200.12 236.899 1167.64 242.592 1135.33 247.563C1133.26 246.911 1131.23 246.194 1129.24 245.411C1117.39 240.626 1107.37 234.075 1099.16 225.758C1091.07 217.441 1084.86 207.87 1080.53 197.047C1076.32 186.223 1074.21 174.773 1074.21 162.696V156.202C1074.21 142.644 1076.09 130.112 1079.85 118.604C1083.61 106.983 1089.19 96.8434 1096.6 88.1846C1104 79.5257 1113.29 72.8037 1124.46 68.0186C1135.62 63.1195 1148.61 60.6699 1163.42 60.6699C1176.52 60.6699 1188.26 62.7777 1198.62 66.9932C1208.99 71.2087 1217.77 77.2471 1224.94 85.1084C1232.23 92.9697 1237.76 102.483 1241.52 113.648C1245.39 124.814 1247.33 137.346 1247.33 151.246V174.659H1133.02C1133.45 176.972 1134.01 179.194 1134.71 181.324C1136.65 186.907 1139.38 191.692 1142.91 195.68C1146.56 199.553 1150.89 202.573 1155.9 204.737C1161.03 206.902 1166.84 207.984 1173.33 207.984C1181.19 207.984 1188.94 206.503 1196.57 203.541C1204.21 200.579 1210.76 195.68 1216.23 188.844L1242.38 219.947C1239.87 223.517 1236.65 227.012 1232.73 230.43ZM1344.28 205.307C1323.94 210.446 1303.64 215.264 1283.37 219.774C1281.22 212.983 1280.14 205.008 1280.14 195.851V104.078H1256.73V64.0879H1280.14V18.1162H1337.74V64.0879H1368.16V104.078H1337.74V188.673C1337.74 193.572 1338.31 197.389 1339.45 200.123C1340.44 202.42 1342.06 204.148 1344.28 205.307ZM1133.08 138.6H1191.11V134.156C1191.22 128.004 1190.14 122.763 1187.86 118.434C1185.69 114.104 1182.5 110.8 1178.29 108.521C1174.07 106.243 1168.95 105.104 1162.91 105.104C1156.64 105.104 1151.46 106.471 1147.36 109.205C1143.37 111.939 1140.23 115.699 1137.96 120.484C1135.79 125.156 1134.25 130.567 1133.34 136.72C1133.25 137.343 1133.16 137.969 1133.08 138.6ZM620.988 192.609C622.949 196.628 625.627 199.93 629.021 202.516C633.806 206.161 640.3 207.984 648.503 207.984C653.972 207.984 658.529 206.731 662.175 204.225C665.821 201.604 668.726 198.015 670.891 193.458C673.055 188.787 674.593 183.432 675.505 177.394C676.416 171.355 676.872 164.861 676.872 157.911V154.322C676.872 147.145 676.359 140.593 675.334 134.669C674.309 128.631 672.657 123.39 670.378 118.946C668.213 114.503 665.308 111.085 661.662 108.692C658.016 106.3 653.516 105.104 648.161 105.104C642.009 105.104 636.825 106.072 632.609 108.009C628.508 109.832 625.204 112.68 622.697 116.554C622.082 117.52 621.513 118.55 620.988 119.644V192.609ZM488.371 131.488V249H430.778V64.0879H484.611L486.56 87.8288C487.25 86.5422 487.968 85.2936 488.713 84.083C493.27 76.5635 498.796 70.8099 505.29 66.8223C511.784 62.7207 519.076 60.6699 527.165 60.6699C530.013 60.6699 532.805 60.8408 535.539 61.1826C538.387 61.5244 540.894 62.0371 543.059 62.7207L542.033 116.212C539.755 115.984 536.678 115.699 532.805 115.357C528.931 115.016 525.684 114.845 523.063 114.845C516.341 114.845 510.531 115.642 505.632 117.237C500.847 118.718 496.859 120.997 493.669 124.073C491.51 126.152 489.744 128.623 488.371 131.488ZM818.205 131.488V249H760.612V64.0879H814.445L816.394 87.8288C817.084 86.5422 817.802 85.2936 818.547 84.083C823.104 76.5635 828.63 70.8099 835.124 66.8223C841.618 62.7207 848.91 60.6699 856.999 60.6699C859.847 60.6699 862.639 60.8408 865.373 61.1826C868.221 61.5244 870.728 62.0371 872.893 62.7207L871.867 116.212C869.589 115.984 866.512 115.699 862.639 115.357C858.765 115.016 855.518 114.845 852.897 114.845C846.175 114.845 840.365 115.642 835.466 117.237C830.681 118.718 826.693 120.997 823.503 124.073C821.344 126.152 819.578 128.623 818.205 131.488ZM938.518 245.411C950.367 250.082 963.811 252.418 978.85 252.418C990.699 252.418 1001.41 250.88 1010.98 247.804C1020.55 244.614 1028.75 240.512 1035.59 235.499C1042.54 230.486 1047.89 225.302 1051.65 219.947L1025.5 188.844C1020.04 195.68 1013.49 200.579 1005.85 203.541C998.218 206.503 990.471 207.984 982.609 207.984C976.115 207.984 970.305 206.902 965.178 204.737C960.165 202.573 955.835 199.553 952.189 195.68C948.658 191.692 945.923 186.907 943.986 181.324C943.291 179.194 942.728 176.972 942.298 174.659H1056.61V151.246C1056.61 137.346 1054.67 124.814 1050.8 113.648C1047.04 102.483 1041.51 92.9697 1034.22 85.1084C1027.04 77.2471 1018.27 71.2087 1007.9 66.9932C997.534 62.7777 985.799 60.6699 972.697 60.6699C957.886 60.6699 944.898 63.1195 933.732 68.0186C922.567 72.8037 913.282 79.5257 905.876 88.1846C898.47 96.8434 892.888 106.983 889.128 118.604C885.368 130.112 883.488 142.644 883.488 156.202V162.696C883.488 174.773 885.596 186.223 889.812 197.047C894.141 207.87 900.35 217.441 908.439 225.758C916.643 234.075 926.669 240.626 938.518 245.411ZM942.356 138.6C942.439 137.969 942.527 137.343 942.619 136.72C943.531 130.567 945.069 125.156 947.233 120.484C949.512 115.699 952.645 111.939 956.633 109.205C960.734 106.471 965.918 105.104 972.185 105.104C978.223 105.104 983.35 106.243 987.565 108.521C991.781 110.8 994.971 114.104 997.136 118.434C999.414 122.763 1000.5 128.004 1000.38 134.156V138.6H942.356Z" fill="#FAEDFF"/>
</svg>
