<svg width="142" height="26" viewBox="0 0 142 26" fill="none" xmlns="http://www.w3.org/2000/svg">
<path d="M0.485 25V1H3.11V11.71H6.77V1H9.395V25H6.77V14.05H3.11V25H0.485ZM11.4352 25L14.1802 1H18.7552L21.5002 25H18.8152L18.2152 18.52H14.7052L14.1202 25H11.4352ZM14.9602 16.18H17.9752L17.4802 10.93L16.8952 3.34H16.0552L15.4552 10.93L14.9602 16.18ZM23.5416 25V1H27.7416C29.3116 1 30.4516 1.34 31.1616 2.02C31.8716 2.69 32.2566 3.81 32.3166 5.38C32.3466 6.19 32.3666 6.945 32.3766 7.645C32.3866 8.345 32.3866 9.03 32.3766 9.7C32.3666 10.36 32.3466 11.035 32.3166 11.725C32.2766 12.775 32.0916 13.62 31.7616 14.26C31.4316 14.9 30.9216 15.365 30.2316 15.655L32.7516 25H29.9616L27.7416 16.105H26.1666V25H23.5416ZM26.1666 13.765H27.7116C28.3816 13.765 28.8716 13.61 29.1816 13.3C29.4916 12.98 29.6616 12.495 29.6916 11.845C29.7216 11.135 29.7416 10.41 29.7516 9.67C29.7616 8.92 29.7616 8.175 29.7516 7.435C29.7416 6.695 29.7216 5.965 29.6916 5.245C29.6616 4.595 29.4916 4.115 29.1816 3.805C28.8816 3.495 28.4016 3.34 27.7416 3.34H26.1666V13.765ZM34.9674 25V1H39.1674C40.7374 1 41.8774 1.34 42.5874 2.02C43.2974 2.69 43.6824 3.81 43.7424 5.38C43.7824 6.59 43.8024 7.685 43.8024 8.665C43.8024 9.635 43.7824 10.64 43.7424 11.68C43.6824 13.24 43.2974 14.36 42.5874 15.04C41.8774 15.72 40.7274 16.06 39.1374 16.06H37.5924V25H34.9674ZM37.5924 13.72H39.1374C39.8074 13.72 40.2974 13.565 40.6074 13.255C40.9174 12.935 41.0874 12.455 41.1174 11.815C41.1474 11.095 41.1674 10.37 41.1774 9.64C41.1874 8.9 41.1874 8.165 41.1774 7.435C41.1674 6.695 41.1474 5.965 41.1174 5.245C41.0874 4.595 40.9174 4.115 40.6074 3.805C40.3074 3.495 39.8274 3.34 39.1674 3.34H37.5924V13.72ZM46.0416 25V1H50.2416C51.8116 1 52.9516 1.34 53.6616 2.02C54.3716 2.69 54.7566 3.81 54.8166 5.38C54.8466 6.19 54.8666 6.945 54.8766 7.645C54.8866 8.345 54.8866 9.03 54.8766 9.7C54.8666 10.36 54.8466 11.035 54.8166 11.725C54.7766 12.775 54.5916 13.62 54.2616 14.26C53.9316 14.9 53.4216 15.365 52.7316 15.655L55.2516 25H52.4616L50.2416 16.105H48.6666V25H46.0416ZM48.6666 13.765H50.2116C50.8816 13.765 51.3716 13.61 51.6816 13.3C51.9916 12.98 52.1616 12.495 52.1916 11.845C52.2216 11.135 52.2416 10.41 52.2516 9.67C52.2616 8.92 52.2616 8.175 52.2516 7.435C52.2416 6.695 52.2216 5.965 52.1916 5.245C52.1616 4.595 51.9916 4.115 51.6816 3.805C51.3816 3.495 50.9016 3.34 50.2416 3.34H48.6666V13.765ZM57.4674 25V1H65.1474V3.34H60.0924V11.71H64.8474V14.05H60.0924V22.66H65.1474V25H57.4674ZM67.3112 25V1H74.9912V3.34H69.9362V11.71H74.6912V14.05H69.9362V22.66H74.9912V25H67.3112ZM79.0899 25V3.34H75.8349V1H84.9549V3.34H81.6999V25H79.0899ZM93.823 25L92.023 1H94.663L95.248 10.51L95.848 22.66H96.553L97.018 10.51L98.143 1.15H102.163L103.318 10.51L103.723 22.66H104.428L105.043 10.51L105.658 1H108.268L106.453 25H101.908L101.113 17.425L100.528 3.415H99.763L99.163 17.425L98.368 25H93.823ZM108.935 25L111.68 1H116.255L119 25H116.315L115.715 18.52H112.205L111.62 25H108.935ZM112.46 16.18H115.475L114.98 10.93L114.395 3.34H113.555L112.955 10.93L112.46 16.18ZM125.212 25.225C123.632 25.225 122.497 24.88 121.807 24.19C121.127 23.49 120.752 22.345 120.682 20.755C120.672 20.215 120.662 19.705 120.652 19.225C120.652 18.745 120.657 18.265 120.667 17.785C120.687 17.305 120.712 16.79 120.742 16.24H123.232C123.192 17.09 123.167 17.935 123.157 18.775C123.157 19.605 123.182 20.41 123.232 21.19C123.262 21.82 123.432 22.285 123.742 22.585C124.052 22.885 124.542 23.035 125.212 23.035C125.852 23.035 126.312 22.885 126.592 22.585C126.882 22.285 127.052 21.82 127.102 21.19C127.132 20.68 127.152 20.22 127.162 19.81C127.172 19.39 127.172 18.965 127.162 18.535C127.152 18.095 127.132 17.6 127.102 17.05C127.072 16.39 126.957 15.83 126.757 15.37C126.567 14.9 126.197 14.595 125.647 14.455L123.862 13.99C123.022 13.78 122.372 13.47 121.912 13.06C121.462 12.64 121.142 12.1 120.952 11.44C120.762 10.78 120.652 9.98 120.622 9.04C120.612 8.44 120.607 7.81 120.607 7.15C120.617 6.49 120.627 5.84 120.637 5.2C120.677 4.15 120.847 3.3 121.147 2.65C121.447 1.99 121.927 1.515 122.587 1.225C123.247 0.924999 124.122 0.774998 125.212 0.774998C126.732 0.774998 127.832 1.12 128.512 1.81C129.202 2.5 129.577 3.64 129.637 5.23C129.657 5.75 129.662 6.39 129.652 7.15C129.642 7.91 129.622 8.69 129.592 9.49H127.072C127.102 8.71 127.122 7.93 127.132 7.15C127.142 6.36 127.132 5.575 127.102 4.795C127.072 4.165 126.902 3.7 126.592 3.4C126.282 3.1 125.812 2.95 125.182 2.95C124.522 2.95 124.047 3.1 123.757 3.4C123.467 3.7 123.302 4.165 123.262 4.795C123.212 5.495 123.187 6.2 123.187 6.91C123.197 7.62 123.222 8.33 123.262 9.04C123.292 9.8 123.402 10.39 123.592 10.81C123.792 11.23 124.182 11.51 124.762 11.65L126.412 12.055C127.282 12.255 127.952 12.575 128.422 13.015C128.892 13.445 129.222 13.995 129.412 14.665C129.602 15.325 129.712 16.12 129.742 17.05C129.762 17.57 129.772 18.02 129.772 18.4C129.772 18.78 129.767 19.155 129.757 19.525C129.747 19.885 129.737 20.295 129.727 20.755C129.667 22.345 129.292 23.49 128.602 24.19C127.912 24.88 126.782 25.225 125.212 25.225ZM136.567 25.225C134.967 25.225 133.822 24.885 133.132 24.205C132.442 23.515 132.082 22.38 132.052 20.8C132.012 17.51 131.992 14.21 131.992 10.9C131.992 7.59 132.012 4.29 132.052 1H134.677C134.647 3.19 134.627 5.425 134.617 7.705C134.607 9.985 134.607 12.265 134.617 14.545C134.627 16.815 134.642 19.045 134.662 21.235C134.662 21.845 134.822 22.3 135.142 22.6C135.462 22.89 135.937 23.035 136.567 23.035C137.217 23.035 137.692 22.89 137.992 22.6C138.302 22.3 138.457 21.845 138.457 21.235C138.477 19.045 138.492 16.815 138.502 14.545C138.522 12.265 138.527 9.985 138.517 7.705C138.517 5.425 138.497 3.19 138.457 1H141.082C141.122 4.29 141.142 7.59 141.142 10.9C141.142 14.21 141.122 17.51 141.082 20.8C141.062 22.38 140.702 23.515 140.002 24.205C139.312 24.885 138.167 25.225 136.567 25.225Z" fill="black"/>
</svg>
