<svg width="643" height="323" viewBox="0 0 643 323" fill="none" xmlns="http://www.w3.org/2000/svg">
<g clip-path="url(#clip0_386_351)">
<rect x="0.046875" y="208.867" width="521.629" height="114.629" rx="57.3144" transform="rotate(-7.58648 0.046875 208.867)" fill="black"/>
<g filter="url(#filter0_f_386_351)">
<circle cx="106.062" cy="252.568" r="35" fill="#3A0047"/>
</g>
<path d="M106.884 258.671C111.272 258.087 114.342 254.073 113.758 249.685L111.646 233.825C111.061 229.437 107.047 226.367 102.66 226.952C98.2716 227.536 95.2013 231.55 95.7857 235.938L97.8981 251.798C98.4825 256.186 102.496 259.256 106.884 258.671Z" fill="url(#paint0_linear_386_351)"/>
<path d="M119.045 248.981C120.016 256.277 114.884 262.986 107.588 263.958C100.293 264.93 93.5831 259.797 92.6114 252.502L87.3248 253.206C88.5676 262.537 96.4876 269.284 105.621 269.385L106.705 277.527L111.992 276.823L110.908 268.681C119.696 266.193 125.574 257.608 124.331 248.277L119.045 248.981Z" fill="url(#paint1_linear_386_351)"/>
<path d="M159.365 259.592L155.644 231.655L159.981 231.078L163.204 255.278L176.214 253.545L176.712 257.282L159.365 259.592ZM179.061 233.049C177.705 233.229 176.477 232.29 176.301 230.973C176.123 229.637 177.063 228.409 178.418 228.228C179.793 228.045 181.002 228.987 181.18 230.323C181.356 231.64 180.435 232.866 179.061 233.049ZM180.1 256.831L177.387 236.464L181.569 235.907L184.282 256.274L180.1 256.831ZM196.281 255.089C191.19 255.768 187.873 253.648 186.952 249.987L186.909 249.816L191.052 249.264L191.117 249.452C191.754 251.279 193.295 252.197 195.87 251.854C198.387 251.518 199.758 250.272 199.539 248.626L199.536 248.607C199.361 247.29 198.524 246.633 196.267 246.402L192.836 246.09C188.846 245.715 186.682 244.112 186.287 241.15L186.284 241.131C185.8 237.491 188.642 234.571 193.327 233.947C198.148 233.305 201.411 235.609 202.085 239.046L202.135 239.276L198.205 239.799L198.168 239.666C197.679 237.919 196.12 236.865 193.758 237.18C191.512 237.479 190.241 238.732 190.457 240.358L190.46 240.378C190.628 241.636 191.573 242.377 193.831 242.608L197.242 242.922C201.533 243.336 203.34 244.77 203.729 247.694L203.732 247.713C204.227 251.43 201.083 254.45 196.281 255.089ZM214.964 252.601C210.937 253.137 208.774 251.692 208.233 247.626L206.678 235.952L203.754 236.341L203.311 233.011L206.234 232.622L205.528 227.317L209.806 226.747L210.513 232.052L214.327 231.544L214.77 234.874L210.956 235.382L212.478 246.804C212.754 248.876 213.765 249.372 215.527 249.137C215.972 249.078 216.335 248.99 216.64 248.91L217.07 252.143C216.597 252.285 215.816 252.488 214.964 252.601ZM228.748 250.765C222.766 251.562 218.602 247.959 217.746 241.531L217.743 241.512C216.895 235.143 220.006 230.393 225.717 229.633C231.428 228.872 235.479 232.51 236.294 238.627L236.482 240.041L222.059 241.962C222.65 245.804 225.059 247.769 228.389 247.325C230.867 246.995 232.342 245.498 232.661 243.899L232.699 243.737L236.668 243.208L236.657 243.426C236.43 246.747 233.685 250.108 228.748 250.765ZM226.193 233.057C223.482 233.418 221.637 235.536 221.722 238.992L231.945 237.63C231.127 234.153 228.923 232.693 226.193 233.057ZM240.949 248.726L238.237 228.359L242.419 227.802L242.829 230.881L242.925 230.868C243.714 228.654 245.62 226.982 248.698 226.572C253.17 225.976 256.129 228.518 256.753 233.203L258.509 246.388L254.308 246.947L252.658 234.556C252.25 231.498 250.588 229.965 247.684 230.352C244.741 230.744 243.128 233.126 243.551 236.301L245.131 248.169L240.949 248.726ZM278.044 243.786L274.82 219.585L266.263 220.725L265.766 216.989L287.197 214.134L287.695 217.871L279.157 219.008L282.38 243.208L278.044 243.786ZM297.768 241.572C291.921 242.351 287.568 238.813 286.697 232.269L286.691 232.23C285.825 225.725 289.141 221.185 294.93 220.414C300.738 219.641 305.144 223.133 306.013 229.657L306.018 229.696C306.892 236.259 303.595 240.796 297.768 241.572ZM297.321 238.066C300.592 237.63 302.338 234.757 301.74 230.266L301.734 230.227C301.141 225.774 298.669 223.483 295.397 223.918C292.183 224.347 290.377 227.208 290.97 231.661L290.975 231.699C291.576 236.21 294.049 238.501 297.321 238.066ZM319.165 238.309L315.444 210.372L319.781 209.794L321.354 221.604L335.7 219.693L334.127 207.884L338.463 207.306L342.184 235.243L337.848 235.821L336.2 223.449L321.854 225.36L323.502 237.731L319.165 238.309ZM352.301 234.27C348.235 234.811 345.173 232.678 344.685 229.018L344.68 228.98C344.208 225.437 346.669 222.902 351.451 221.97L356.944 220.903L356.74 219.374C356.441 217.128 354.808 215.966 352.214 216.312C349.794 216.634 348.456 217.975 348.324 219.647L348.308 219.827L344.359 220.353L344.35 220.137C344.173 216.594 346.854 213.499 351.869 212.831C356.844 212.168 360.351 214.381 360.895 218.466L362.764 232.502L358.563 233.061L358.135 229.848L358.058 229.858C357.168 232.203 354.992 233.912 352.301 234.27ZM348.893 228.36C349.13 230.141 350.751 231.068 352.997 230.768C355.94 230.377 357.9 228.086 357.547 225.434L357.336 223.846L352.401 224.818C349.905 225.309 348.658 226.598 348.888 228.321L348.893 228.36ZM366.83 231.96L364.117 211.593L368.299 211.036L368.763 214.521L368.86 214.508C369.201 212.039 370.706 210.322 373.03 210.012C373.63 209.932 374.165 209.96 374.502 209.974L375.02 213.865C374.673 213.774 373.925 213.775 373.112 213.883C370.421 214.241 368.99 216.225 369.395 219.265L371.012 231.403L366.83 231.96ZM380.743 237.004L377.127 209.861L381.309 209.304L381.776 212.808L381.873 212.795C382.77 210.212 384.82 208.442 387.724 208.055C392.913 207.364 396.784 210.986 397.65 217.491L397.653 217.511C398.517 223.996 395.712 228.528 390.6 229.208C387.716 229.592 385.177 228.433 383.662 226.231L383.565 226.244L384.924 236.447L380.743 237.004ZM388.979 225.759C392.27 225.321 393.966 222.376 393.394 218.078L393.391 218.059C392.814 213.722 390.389 211.345 387.117 211.781C383.942 212.204 382.082 215.25 382.646 219.49L382.649 219.509C383.211 223.73 385.823 226.18 388.979 225.759ZM402.259 227.242L399.547 206.875L403.728 206.318L404.193 209.803L404.289 209.79C404.63 207.321 406.136 205.603 408.459 205.294C409.059 205.214 409.595 205.241 409.932 205.255L410.45 209.146C410.103 209.055 409.354 209.056 408.541 209.164C405.85 209.523 404.42 211.506 404.824 214.546L406.441 226.685L402.259 227.242ZM423.126 224.876C417.143 225.673 412.979 222.07 412.123 215.643L412.12 215.623C411.272 209.254 414.383 204.505 420.094 203.744C425.806 202.983 429.857 206.621 430.671 212.739L430.86 214.152L416.436 216.073C417.027 219.915 419.436 221.88 422.766 221.437C425.244 221.107 426.72 219.61 427.039 218.011L427.076 217.848L431.045 217.319L431.035 217.537C430.807 220.858 428.063 224.219 423.126 224.876ZM420.57 207.168C417.86 207.529 416.014 209.647 416.1 213.103L426.322 211.742C425.504 208.265 423.3 206.804 420.57 207.168ZM444.074 222.086C438.091 222.883 433.927 219.28 433.071 212.853L433.068 212.833C432.22 206.464 435.331 201.715 441.042 200.954C446.754 200.193 450.804 203.831 451.619 209.949L451.807 211.362L437.384 213.283C437.975 217.125 440.384 219.09 443.714 218.647C446.192 218.317 447.668 216.82 447.987 215.221L448.024 215.058L451.993 214.529L451.983 214.747C451.755 218.068 449.01 221.429 444.074 222.086ZM441.518 204.378C438.808 204.739 436.962 206.857 437.048 210.313L447.27 208.952C446.452 205.475 444.248 204.014 441.518 204.378ZM463.473 219.503C459.446 220.039 457.283 218.593 456.741 214.527L455.186 202.853L452.263 203.242L451.819 199.913L454.743 199.523L454.036 194.218L458.315 193.649L459.021 198.953L462.835 198.445L463.279 201.775L459.465 202.283L460.986 213.706C461.262 215.777 462.274 216.273 464.036 216.038C464.481 215.979 464.844 215.891 465.148 215.812L465.579 219.045C465.105 219.187 464.324 219.389 463.473 219.503Z" fill="white"/>
</g>
<rect x="1.17014" y="209.726" width="519.629" height="112.629" rx="56.3144" transform="rotate(-7.58648 1.17014 209.726)" stroke="url(#paint2_linear_386_351)" stroke-width="2"/>
<path d="M468 105V17" stroke="#FAEDFF" stroke-width="20" stroke-linecap="round"/>
<path d="M516 121L588.5 10" stroke="#FAEDFF" stroke-width="20" stroke-linecap="round"/>
<path d="M547 167.025L633 137" stroke="#FAEDFF" stroke-width="20" stroke-linecap="round"/>
<defs>
<filter id="filter0_f_386_351" x="21.0625" y="167.568" width="170" height="170" filterUnits="userSpaceOnUse" color-interpolation-filters="sRGB">
<feFlood flood-opacity="0" result="BackgroundImageFix"/>
<feBlend mode="normal" in="SourceGraphic" in2="BackgroundImageFix" result="shape"/>
<feGaussianBlur stdDeviation="25" result="effect1_foregroundBlur_386_351"/>
</filter>
<linearGradient id="paint0_linear_386_351" x1="87.5008" y1="254.528" x2="124.507" y2="249.599" gradientUnits="userSpaceOnUse">
<stop stop-color="#B100C0"/>
<stop offset="1" stop-color="#0048D3"/>
</linearGradient>
<linearGradient id="paint1_linear_386_351" x1="87.5008" y1="254.528" x2="124.507" y2="249.599" gradientUnits="userSpaceOnUse">
<stop stop-color="#B100C0"/>
<stop offset="1" stop-color="#0048D3"/>
</linearGradient>
<linearGradient id="paint2_linear_386_351" x1="0.0468736" y1="266.182" x2="521.676" y2="266.182" gradientUnits="userSpaceOnUse">
<stop stop-color="#B100C0"/>
<stop offset="1" stop-color="#0048D3"/>
</linearGradient>
<clipPath id="clip0_386_351">
<rect x="0.046875" y="208.867" width="521.629" height="114.629" rx="57.3144" transform="rotate(-7.58648 0.046875 208.867)" fill="white"/>
</clipPath>
</defs>
</svg>
