<svg width="174" height="138" viewBox="0 0 174 138" fill="none" xmlns="http://www.w3.org/2000/svg">
<path d="M0 32C14.1645 32 25.6471 17.6731 25.6471 0C25.6471 17.6731 37.1296 32 51.2941 32C37.1296 32 25.6471 46.3269 25.6471 64C25.6471 46.3269 14.1645 32 0 32Z" fill="black"/>
<path d="M61.2969 32C75.4614 32 86.9439 17.6731 86.9439 0C86.9439 17.6731 98.4265 32 112.591 32C98.4265 32 86.9439 46.3269 86.9439 64C86.9439 46.3269 75.4614 32 61.2969 32Z" fill="black"/>
<path d="M122.586 32C136.75 32 148.233 17.6731 148.233 0C148.233 17.6731 159.716 32 173.88 32C159.716 32 148.233 46.3269 148.233 64C148.233 46.3269 136.75 32 122.586 32Z" fill="black"/>
<path d="M0 106C14.1645 106 25.6471 91.6731 25.6471 74C25.6471 91.6731 37.1296 106 51.2941 106C37.1296 106 25.6471 120.327 25.6471 138C25.6471 120.327 14.1645 106 0 106Z" fill="black"/>
<path d="M61.2969 106C75.4614 106 86.9439 91.6731 86.9439 74C86.9439 91.6731 98.4265 106 112.591 106C98.4265 106 86.9439 120.327 86.9439 138C86.9439 120.327 75.4614 106 61.2969 106Z" fill="black"/>
<path d="M122.586 106C136.75 106 148.233 91.6731 148.233 74C148.233 91.6731 159.716 106 173.88 106C159.716 106 148.233 120.327 148.233 138C148.233 120.327 136.75 106 122.586 106Z" fill="black"/>
</svg>
