<svg width="142" height="26" viewBox="0 0 142 26" fill="none" xmlns="http://www.w3.org/2000/svg">
<path d="M0.485 25V1H3.11V11.71H6.77V1H9.395V25H6.77V14.05H3.11V25H0.485ZM11.4645 25L14.2095 1H18.7845L21.5295 25H18.8445L18.2445 18.52H14.7345L14.1495 25H11.4645ZM14.9895 16.18H18.0045L17.5095 10.93L16.9245 3.34H16.0845L15.4845 10.93L14.9895 16.18ZM23.5709 25V1H27.7709C29.3409 1 30.4809 1.34 31.1909 2.02C31.9009 2.69 32.2859 3.81 32.3459 5.38C32.3759 6.19 32.3959 6.945 32.4059 7.645C32.4159 8.345 32.4159 9.03 32.4059 9.7C32.3959 10.36 32.3759 11.035 32.3459 11.725C32.3059 12.775 32.1209 13.62 31.7909 14.26C31.4609 14.9 30.9509 15.365 30.2609 15.655L32.7809 25H29.9909L27.7709 16.105H26.1959V25H23.5709ZM26.1959 13.765H27.7409C28.4109 13.765 28.9009 13.61 29.2109 13.3C29.5209 12.98 29.6909 12.495 29.7209 11.845C29.7509 11.135 29.7709 10.41 29.7809 9.67C29.7909 8.92 29.7909 8.175 29.7809 7.435C29.7709 6.695 29.7509 5.965 29.7209 5.245C29.6909 4.595 29.5209 4.115 29.2109 3.805C28.9109 3.495 28.4309 3.34 27.7709 3.34H26.1959V13.765ZM34.9967 25V1H39.1967C40.7667 1 41.9067 1.34 42.6167 2.02C43.3267 2.69 43.7117 3.81 43.7717 5.38C43.8117 6.59 43.8317 7.685 43.8317 8.665C43.8317 9.635 43.8117 10.64 43.7717 11.68C43.7117 13.24 43.3267 14.36 42.6167 15.04C41.9067 15.72 40.7567 16.06 39.1667 16.06H37.6217V25H34.9967ZM37.6217 13.72H39.1667C39.8367 13.72 40.3267 13.565 40.6367 13.255C40.9467 12.935 41.1167 12.455 41.1467 11.815C41.1767 11.095 41.1967 10.37 41.2067 9.64C41.2167 8.9 41.2167 8.165 41.2067 7.435C41.1967 6.695 41.1767 5.965 41.1467 5.245C41.1167 4.595 40.9467 4.115 40.6367 3.805C40.3367 3.495 39.8567 3.34 39.1967 3.34H37.6217V13.72ZM46.0709 25V1H50.2709C51.8409 1 52.9809 1.34 53.6909 2.02C54.4009 2.69 54.7859 3.81 54.8459 5.38C54.8759 6.19 54.8959 6.945 54.9059 7.645C54.9159 8.345 54.9159 9.03 54.9059 9.7C54.8959 10.36 54.8759 11.035 54.8459 11.725C54.8059 12.775 54.6209 13.62 54.2909 14.26C53.9609 14.9 53.4509 15.365 52.7609 15.655L55.2809 25H52.4909L50.2709 16.105H48.6959V25H46.0709ZM48.6959 13.765H50.2409C50.9109 13.765 51.4009 13.61 51.7109 13.3C52.0209 12.98 52.1909 12.495 52.2209 11.845C52.2509 11.135 52.2709 10.41 52.2809 9.67C52.2909 8.92 52.2909 8.175 52.2809 7.435C52.2709 6.695 52.2509 5.965 52.2209 5.245C52.1909 4.595 52.0209 4.115 51.7109 3.805C51.4109 3.495 50.9309 3.34 50.2709 3.34H48.6959V13.765ZM57.4967 25V1H65.1767V3.34H60.1217V11.71H64.8767V14.05H60.1217V22.66H65.1767V25H57.4967ZM67.3405 25V1H75.0205V3.34H69.9655V11.71H74.7205V14.05H69.9655V22.66H75.0205V25H67.3405ZM79.1192 25V3.34H75.8642V1H84.9842V3.34H81.7292V25H79.1192ZM93.8523 25L92.0523 1H94.6923L95.2773 10.51L95.8773 22.66H96.5823L97.0473 10.51L98.1723 1.15H102.192L103.347 10.51L103.752 22.66H104.457L105.072 10.51L105.687 1H108.297L106.482 25H101.937L101.142 17.425L100.557 3.415H99.7923L99.1923 17.425L98.3973 25H93.8523ZM108.965 25L111.71 1H116.285L119.03 25H116.345L115.745 18.52H112.235L111.65 25H108.965ZM112.49 16.18H115.505L115.01 10.93L114.425 3.34H113.585L112.985 10.93L112.49 16.18ZM125.241 25.225C123.661 25.225 122.526 24.88 121.836 24.19C121.156 23.49 120.781 22.345 120.711 20.755C120.701 20.215 120.691 19.705 120.681 19.225C120.681 18.745 120.686 18.265 120.696 17.785C120.716 17.305 120.741 16.79 120.771 16.24H123.261C123.221 17.09 123.196 17.935 123.186 18.775C123.186 19.605 123.211 20.41 123.261 21.19C123.291 21.82 123.461 22.285 123.771 22.585C124.081 22.885 124.571 23.035 125.241 23.035C125.881 23.035 126.341 22.885 126.621 22.585C126.911 22.285 127.081 21.82 127.131 21.19C127.161 20.68 127.181 20.22 127.191 19.81C127.201 19.39 127.201 18.965 127.191 18.535C127.181 18.095 127.161 17.6 127.131 17.05C127.101 16.39 126.986 15.83 126.786 15.37C126.596 14.9 126.226 14.595 125.676 14.455L123.891 13.99C123.051 13.78 122.401 13.47 121.941 13.06C121.491 12.64 121.171 12.1 120.981 11.44C120.791 10.78 120.681 9.98 120.651 9.04C120.641 8.44 120.636 7.81 120.636 7.15C120.646 6.49 120.656 5.84 120.666 5.2C120.706 4.15 120.876 3.3 121.176 2.65C121.476 1.99 121.956 1.515 122.616 1.225C123.276 0.924999 124.151 0.774998 125.241 0.774998C126.761 0.774998 127.861 1.12 128.541 1.81C129.231 2.5 129.606 3.64 129.666 5.23C129.686 5.75 129.691 6.39 129.681 7.15C129.671 7.91 129.651 8.69 129.621 9.49H127.101C127.131 8.71 127.151 7.93 127.161 7.15C127.171 6.36 127.161 5.575 127.131 4.795C127.101 4.165 126.931 3.7 126.621 3.4C126.311 3.1 125.841 2.95 125.211 2.95C124.551 2.95 124.076 3.1 123.786 3.4C123.496 3.7 123.331 4.165 123.291 4.795C123.241 5.495 123.216 6.2 123.216 6.91C123.226 7.62 123.251 8.33 123.291 9.04C123.321 9.8 123.431 10.39 123.621 10.81C123.821 11.23 124.211 11.51 124.791 11.65L126.441 12.055C127.311 12.255 127.981 12.575 128.451 13.015C128.921 13.445 129.251 13.995 129.441 14.665C129.631 15.325 129.741 16.12 129.771 17.05C129.791 17.57 129.801 18.02 129.801 18.4C129.801 18.78 129.796 19.155 129.786 19.525C129.776 19.885 129.766 20.295 129.756 20.755C129.696 22.345 129.321 23.49 128.631 24.19C127.941 24.88 126.811 25.225 125.241 25.225ZM136.597 25.225C134.997 25.225 133.852 24.885 133.162 24.205C132.472 23.515 132.112 22.38 132.082 20.8C132.042 17.51 132.022 14.21 132.022 10.9C132.022 7.59 132.042 4.29 132.082 1H134.707C134.677 3.19 134.657 5.425 134.647 7.705C134.637 9.985 134.637 12.265 134.647 14.545C134.657 16.815 134.672 19.045 134.692 21.235C134.692 21.845 134.852 22.3 135.172 22.6C135.492 22.89 135.967 23.035 136.597 23.035C137.247 23.035 137.722 22.89 138.022 22.6C138.332 22.3 138.487 21.845 138.487 21.235C138.507 19.045 138.522 16.815 138.532 14.545C138.552 12.265 138.557 9.985 138.547 7.705C138.547 5.425 138.527 3.19 138.487 1H141.112C141.152 4.29 141.172 7.59 141.172 10.9C141.172 14.21 141.152 17.51 141.112 20.8C141.092 22.38 140.732 23.515 140.032 24.205C139.342 24.885 138.197 25.225 136.597 25.225Z" fill="black"/>
</svg>
