<svg width="1856" height="284" viewBox="0 0 1856 284" fill="none" xmlns="http://www.w3.org/2000/svg">
<g clip-path="url(#clip0_284_318)">
<path d="M278.263 143.112C278.263 220.479 215.972 283.2 139.129 283.2C62.2866 283.2 0 220.498 0 143.112C0 65.726 62.2913 3.02835 139.129 3.02835C215.967 3.02835 278.263 65.7449 278.263 143.112ZM430.894 143.112C430.894 215.943 399.746 274.979 361.328 274.979C322.909 274.979 291.761 215.924 291.761 143.112C291.761 70.2992 322.909 11.2441 361.328 11.2441C399.746 11.2441 430.894 70.2992 430.894 143.112ZM493.323 143.112C493.323 208.365 482.367 261.26 468.855 261.26C455.343 261.26 444.387 208.346 444.387 143.112C444.387 77.8772 455.343 24.9638 468.86 24.9638C482.376 24.9638 493.323 77.863 493.323 143.112ZM877.309 15.1748L877.696 15.0898V12.0898H798.572L725.102 184.767L651.633 12.0898H566.367V15.0898L566.75 15.1748C581.192 18.4346 588.524 23.2961 588.524 40.8283V246.08C588.524 263.613 581.164 268.474 566.721 271.734L566.339 271.819V274.828H624.189V271.828L623.806 271.743C609.364 268.483 602.031 263.622 602.031 246.09V52.7339L696.411 274.828H701.764L798.893 46.5402V251.159C797.655 265.006 790.389 269.282 777.312 272.235L776.924 272.324V275.301H877.696V272.324L877.309 272.235C864.217 269.282 856.776 265.006 855.539 251.159L855.472 40.8283H855.539C855.539 23.2961 862.871 18.4346 877.309 15.1748ZM923.339 151.143C924.987 114.265 938.23 87.6472 960.453 87.189C967.309 87.3024 973.058 89.5512 977.528 93.8787C987.024 103.096 991.488 122.357 990.798 151.143H923.339ZM922.342 161.537H1040.45V161.041C1040.12 132.841 1031.95 110.905 1016.2 95.8441C1002.58 82.8283 982.422 75.6661 961.247 75.6661H960.775C949.786 75.6661 936.307 78.3307 926.717 83.159C915.798 88.2142 906.17 95.7732 898.157 105.694C885.26 121.677 877.446 143.277 875.546 167.551C875.485 168.279 875.433 169.006 875.381 169.734C875.329 170.461 875.296 171.113 875.263 171.808C875.095 175.221 875.039 178.638 875.093 182.055C876.373 237.033 906.071 280.97 958.819 280.97C1005.12 280.97 1032.08 247.124 1038.8 201.694L1035.41 200.499C1023.6 224.915 1002.38 239.712 978.241 237.907C945.283 235.441 920.036 202.025 922.328 161.546M1173.99 236.041C1170.12 245.23 1162.03 250.285 1151.2 250.285C1140.37 250.285 1130.47 242.849 1123.43 229.337C1115.87 214.833 1111.89 194.329 1111.89 170.041C1111.89 119.49 1127.62 86.7921 1151.95 86.7921C1162.14 86.7921 1170.17 91.8472 1173.99 100.668V236.041ZM1252.34 272.079C1237.9 268.663 1230.57 263.575 1230.57 245.15V0L1142.82 25.852V29.0173L1143.36 28.9748C1155.46 27.9968 1163.67 29.6693 1168.44 34.0724C1172.17 37.5213 1173.99 42.8126 1173.99 50.2583V83.8677C1165.34 78.3449 1155.05 75.6567 1142.57 75.6567C1117.24 75.6567 1094.1 86.3197 1077.41 105.685C1060.01 125.868 1050.81 153.449 1050.81 185.438C1050.8 242.57 1078.93 280.97 1120.79 280.97C1145.27 280.97 1164.97 267.553 1173.99 244.923V275.301H1252.72V272.154L1252.34 272.079ZM1327.6 33.3402C1327.6 15.5008 1314.15 2.04567 1296.3 2.04567C1278.54 2.04567 1264.65 15.7937 1264.65 33.3402C1264.65 50.8866 1278.56 64.6346 1296.3 64.6346C1314.15 64.6346 1327.6 51.1795 1327.6 33.3402ZM1348.31 272.079C1333.87 268.663 1326.53 263.575 1326.53 245.15H1326.47V76.2378L1247.74 98.8441V101.915L1248.21 101.957C1265.24 103.474 1269.91 109.342 1269.91 129.25V275.301H1348.71V272.154L1348.31 272.079ZM1550.06 272.079C1535.62 268.663 1528.29 263.575 1528.29 245.15V76.2378L1453.32 98.0976V101.178L1453.77 101.225C1467.69 102.69 1471.72 108.893 1471.72 128.891V235.663C1467.08 244.852 1458.36 250.309 1447.81 250.677C1430.69 250.677 1421.27 239.117 1421.27 218.126V76.2425L1342.53 98.8488V101.915L1343 101.957C1360.04 103.469 1364.71 109.337 1364.71 129.25V219.614C1364.67 225.922 1365.22 232.221 1366.35 238.427L1367.76 244.592C1374.43 268.479 1391.9 280.97 1419.26 280.97C1442.44 280.97 1462.75 266.622 1471.7 244.172V275.353H1550.44V272.206L1550.06 272.079ZM1855.94 275.301V272.15L1855.55 272.06C1839.88 268.446 1833.78 261.633 1833.78 247.762V132.865C1833.78 97.0394 1813.66 75.6567 1779.95 75.6567C1755.39 75.6567 1734.67 89.8535 1726.7 111.968C1720.36 88.5354 1702.13 75.6567 1675.17 75.6567C1651.49 75.6567 1632.94 88.1527 1624.97 109.261V76.252L1546.24 97.9323V101.022L1546.71 101.065C1563.54 102.557 1568.41 108.595 1568.41 127.994V275.301H1641.87V272.154L1641.49 272.06C1628.99 269.121 1624.95 263.764 1624.95 250.016V118.318C1628.26 110.594 1634.92 101.443 1648.1 101.443C1664.47 101.443 1672.76 112.781 1672.76 135.118V275.301H1746.25V272.154L1745.86 272.06C1733.36 269.121 1729.32 263.764 1729.32 250.016V132.85C1729.35 128.469 1729.01 124.094 1728.28 119.773C1731.79 111.378 1738.84 101.443 1752.55 101.443C1769.15 101.443 1777.21 112.455 1777.21 135.118V275.301H1855.94Z" fill="white"/>
</g>
<defs>
<clipPath id="clip0_284_318">
<rect width="1856" height="284" fill="white"/>
</clipPath>
</defs>
</svg>
