<svg width="1728" height="1117" viewBox="0 0 1728 1117" fill="none" xmlns="http://www.w3.org/2000/svg">
<mask id="mask0_132_791" style="mask-type:alpha" maskUnits="userSpaceOnUse" x="656" y="177" width="434" height="761">
<path d="M853.88 263.34C910.112 257.488 960.445 298.363 966.302 354.638C968.786 378.501 965.565 397.982 953.643 416.776L995.397 493.593C1035.24 454.87 1057.35 405.385 1051.15 345.807C1040.41 242.637 948.135 167.698 845.042 178.428C741.95 189.157 667.081 281.492 677.819 384.663C680.38 409.274 687.582 432.278 698.463 452.896L828.932 704.22C834.909 715.5 854.489 734.863 884.995 722.075C896.952 714.994 917.318 693.785 903.132 665.598L770.51 405.915C766.477 396.581 763.775 386.482 762.667 375.832C756.81 319.557 797.647 269.193 853.88 263.34Z" fill="white"/>
<path d="M884.978 838.934C820.161 845.68 762.154 798.674 755.417 733.942C752.56 706.493 779.325 655.718 793.072 634.097L742.906 537.581C696.971 582.134 650.483 675.59 657.615 744.121C669.967 862.795 776.312 948.974 895.144 936.607C1013.98 924.239 1100.3 818.008 1087.94 699.333C1085 671.024 1076.7 644.564 1064.17 620.849L919.449 352.429C912.562 339.455 889.998 317.187 854.832 331.904C841.049 340.053 817.568 364.454 833.913 396.874L981.11 674.909C985.756 685.646 988.867 697.262 990.142 709.512C996.879 774.244 949.796 832.188 884.978 838.934Z" fill="white"/>
</mask>
<g mask="url(#mask0_132_791)">
<rect x="275" y="153" width="1177" height="811" fill="url(#paint0_linear_132_791)"/>
</g>
<defs>
<linearGradient id="paint0_linear_132_791" x1="863.5" y1="153" x2="863.5" y2="964" gradientUnits="userSpaceOnUse">
<stop offset="0.23421" stop-color="#1C2D51" stop-opacity="0.9"/>
<stop offset="0.561727" stop-color="#0478E2" stop-opacity="0.8"/>
<stop offset="0.968991" stop-color="#00ED65" stop-opacity="0.8"/>
</linearGradient>
</defs>
</svg>
