<svg width="932" height="82" viewBox="0 0 932 82" fill="none" xmlns="http://www.w3.org/2000/svg">
<path d="M7.08333 18.6667C7.08333 20.25 8 21.4167 9.16667 21.9167L8.33333 23.0833C5.25 21.75 2.66667 18.6667 2.66667 14.3333C2.66667 8.33333 7.75 3.16667 15.8333 3.16667C22.9167 3.16667 33.9167 9.08333 41.5833 9.08333C43.3333 9.08333 45.0833 8.25 45.0833 6.41666C45.0833 3.5 41.25 3.08333 38.6667 2.75V1.16666C46.5 0.583331 52.5833 4.83333 52.5833 10.9167C52.5833 16.9167 47.3333 20.1667 41.25 20.1667C41.25 20.1667 41.25 20.1667 41.1667 20.1667V30.1667L46.75 35.75L41.1667 41.3333V54.0833C45.25 51.3333 48.25 47.25 49.9167 43.0833H51.5C51.5 43.3333 51.5 43.6667 51.5 43.9167C51.5 56.5833 40.8333 66.75 27.3333 66.75C13.75 66.75 0.666667 56.1667 0.666667 40.75C0.666667 30.5 8 19.5833 20.3333 17.5L21.1667 18.75C19.6667 19.6667 15.3333 22.9167 12.75 28.5833L31.0833 20.75V46.0833L16.3333 52.25C19.6667 55.5 24.25 57.5833 29.5833 57.5833C33.0833 57.5833 36.1667 56.75 38.8333 55.4167V41.25L33.4167 35.75L38.8333 30.25V20C31 19 16.5 14.3333 12.5833 14.3333C9.75 14.3333 7.08333 15.8333 7.08333 18.6667ZM11.5833 31.4167C11 33.4167 10.6667 35.6667 10.6667 38.0833C10.6667 42.6667 12.1667 47.0833 14.8333 50.5L20.3333 48.1667V27.75L11.5833 31.4167ZM71.9609 57.0833L74.6276 59.75L77.2109 58L78.7109 59.8333L68.3776 67.0833L59.7943 59.75L56.6276 61.75L55.1276 59.8333L60.7943 56.25V18.3333C60.7943 17 60.7943 15.1667 56.7943 13.9167V12.75L70.3776 3.16667H71.9609V34.0833L82.2943 24.3333L91.1276 31.6667L94.4609 29L95.8776 30.8333L92.2943 33.75V57.5C92.2943 66.0833 89.4609 76.4167 74.9609 76.4167C74.0443 76.4167 73.2109 76.3333 72.3776 76.25V74.25C78.5443 74.25 81.5443 66.1667 81.5443 57.5V36.3333L76.5443 32.1667L71.9609 36.5V57.0833ZM98.8086 61.6667L97.3086 59.8333L101.309 56.6667V34.6667L121.225 24.3333L129.642 37.0833V37.5L111.642 48.6667V52.25L121.642 59.0833L130.809 51.9167L132.059 53.9167L114.892 67.8333L102.475 58.6667L98.8086 61.6667ZM111.642 45.8333L120.059 40.5L113.225 30.6667L111.642 31.5833V45.8333ZM159.171 15.6667L157.587 14.8333C157.837 14.1667 160.587 4.16667 170.837 4.16667C173.587 4.16667 176.504 4.83333 179.421 4.83333C181.671 4.83333 183.921 4.41667 186.171 3.08333L187.754 3.83333C185.087 6.75 180.754 12.9167 173.421 12.9167C170.837 12.9167 168.254 12.25 165.837 12.25C163.504 12.25 160.754 12.9167 159.171 15.6667ZM166.421 55.0833C170.087 53 171.004 50.9167 171.004 38.5V38.3333C170.254 38.3333 169.587 38.3333 168.921 38.3333C165.421 38.3333 163.671 40.25 164.171 43.0833H162.587C161.754 41.5833 161.254 39.9167 161.254 38.25C161.254 31.4167 166.504 29.8333 171.004 29.0833V26.9167C171.004 19.3333 174.671 18.3333 179.337 14.75C180.837 13.6667 182.171 12.3333 183.421 10.9167L185.504 8.5H187.921C187.921 15.25 187.921 22 187.921 28.6667H199.337V13.6667L197.087 11.5833L194.254 13.75L194.171 11.5L203.837 3.58333L210.171 8.75L212.587 6.75L214.087 8.58333L210.921 11.1667V56.3333L213.337 58.9167L215.921 56.75L217.087 57.9167L206.087 67.3333L198.004 59.9167L195.921 61.5L195.004 60.25L199.337 56.9167V38.4167H187.921C187.921 45.3333 187.921 52.25 187.921 59.1667C188.337 59.3333 188.754 59.5833 189.254 59.8333L180.921 67.75C179.337 66.6667 176.004 64.75 171.504 64.75C167.004 64.75 162.587 66.6667 159.504 69.9167H157.004C157.837 68.0833 163.837 56.9167 177.837 56.9167C180.421 56.9167 183.087 57.3333 185.504 58.1667C185.504 42.4167 185.504 26.75 185.504 11C182.837 13.9167 181.754 16.25 181.671 23.0833V41.6667C181.671 44.6667 181.754 50.25 175.671 54.0833C172.921 55.8333 169.671 56.8333 166.421 57.1667V55.0833ZM231.293 31C228.793 32.3333 226.71 33.8333 226.71 36.0833C226.71 41.4167 235.543 43.6667 241.126 44.9167C241.126 42.3333 241.126 39.6667 241.126 37.0833L231.293 31ZM232.71 67.4167C227.376 66.75 221.46 62.6667 221.46 56.5C221.46 52 224.876 47.75 231.126 44.5C227.293 42.8333 224.293 40.4167 224.293 36.5833C224.293 32.9167 227.043 30.8333 229.543 29.5L238.71 24.75L250.96 32.6667L254.376 29.9167L255.793 31.75L251.46 35.25V56.25L255.46 60.25L259.043 57.8333L259.46 59.5L247.876 67.4167L241.46 61.0833L232.71 67.4167ZM241.126 47.4167C238.46 46.8333 235.376 46.0833 232.626 45.0833C232.043 45.9167 231.543 47.3333 231.543 48.9167C231.543 53.6667 234.21 60.25 239.376 60.25C239.96 60.25 240.543 60.1667 241.126 60C241.126 55.8333 241.126 51.5833 241.126 47.4167ZM285.697 56.5833L287.28 58.4167L274.78 67.4167L265.613 60.25L262.863 62.25L261.613 60.6667L266.863 57.0833V35.0833L264.03 31.5L260.863 33.5L259.697 31.9167L270.863 24.3333L276.947 30.9167L282.78 24.25H283.613C284.447 25.5 285.863 26.3333 287.363 26.3333C289.113 26.3333 290.447 25.4167 291.113 24.25H293.613C292.697 34.5833 287.863 35.9167 285.363 35.9167C283.53 35.9167 280.613 35.0833 277.863 32.5V57.0833L281.197 59.6667L285.697 56.5833ZM304.04 24.25C306.374 25.75 308.374 27.9167 309.624 30.5V32L320.124 24.1667L328.207 31.25L330.79 29.1667L332.207 31L329.124 33.5V56.75C324.124 59.5 319.457 62.75 315.29 66.3333C313.54 65.3333 311.624 64.4167 309.624 63.5V67.3333C309.624 70.5833 310.707 72.75 313.457 73.1667V74.3333L301.54 81.5H299.957V60.5C298.54 60.1667 297.124 60 295.707 59.75L299.957 56.1667V35.3333C299.957 34 299.29 31.75 296.707 31.75C296.04 31.75 295.374 32 294.79 32.3333L293.957 31L304.04 24.25ZM309.624 34.75V57.3333C312.79 58.5833 315.79 59.9167 318.79 61.25V36.5L313.29 32L309.624 34.75ZM359.329 56.5833L360.913 58.4167L348.413 67.4167L339.246 60.25L336.496 62.25L335.246 60.6667L340.496 57.0833V35.0833L337.663 31.5L334.496 33.5L333.329 31.9167L344.496 24.3333L350.579 30.9167L356.413 24.25H357.246C358.079 25.5 359.496 26.3333 360.996 26.3333C362.746 26.3333 364.079 25.4167 364.746 24.25H367.246C366.329 34.5833 361.496 35.9167 358.996 35.9167C357.163 35.9167 354.246 35.0833 351.496 32.5V57.0833L354.829 59.6667L359.329 56.5833ZM368.34 61.6667L366.84 59.8333L370.84 56.6667V34.6667L390.757 24.3333L399.173 37.0833V37.5L381.173 48.6667V52.25L391.173 59.0833L400.34 51.9167L401.59 53.9167L384.423 67.8333L372.007 58.6667L368.34 61.6667ZM381.173 45.8333L389.59 40.5L382.757 30.6667L381.173 31.5833V45.8333ZM403.887 61.6667L402.387 59.8333L406.387 56.6667V34.6667L426.303 24.3333L434.72 37.0833V37.5L416.72 48.6667V52.25L426.72 59.0833L435.887 51.9167L437.137 53.9167L419.97 67.8333L407.553 58.6667L403.887 61.6667ZM416.72 45.8333L425.137 40.5L418.303 30.6667L416.72 31.5833V45.8333ZM455.85 57.1667L459.767 61.0833L462.6 59.5833L463.767 61.1667L452.267 67.1667L443.517 59.5833L440.35 61.5833L439.1 59.9167L444.684 56.3333V36.3333C444.684 33.0833 442.434 32.3333 440.684 32.3333V31.1667L454.267 17.5H455.85V27.0833H465.767L461.85 31.6667H455.85V57.1667ZM499.779 37.1667C496.695 37.1667 494.445 38.8333 495.029 41.9167H493.445C492.612 40.5 492.195 38.75 492.195 37.0833C492.195 33.0833 494.279 30.4167 497.029 29.1667C498.945 28.25 501.029 28 503.112 27.6667C503.112 26.4167 503.112 25.1667 503.112 24V17C503.112 16.6667 503.362 11.5 498.945 11.5C496.529 11.5 494.695 13.4167 494.279 15.5H492.195C491.695 9.75 496.612 5.25 503.029 5.25C508.445 5.25 512.279 8.16666 513.779 12.1667C514.695 14.4167 514.695 16.6667 514.695 19.4167C514.695 20.6667 514.695 21.9167 514.695 23.1667V24.5833V52.75C515.945 52.9167 517.279 53.25 518.529 53.6667C518.529 37.8333 518.529 21.9167 518.529 6.08333H520.862C520.862 8.58333 520.862 11 520.862 13.4167L532.195 4.91667L540.362 12.6667V52L544.779 55C544.779 38.6667 544.779 22.4167 544.779 6.08333H547.112C547.112 8.58333 547.112 11.0833 547.112 13.5833L558.529 5L566.695 12.6667V51.4167L544.195 68.25L529.945 58.5L518.779 67.6667C515.195 63.9167 510.112 61.5833 504.779 61.5833C500.362 61.5833 495.945 63.1667 492.612 66H491.029C492.612 62.1667 496.695 56.75 503.112 54.1667C503.112 48.5 503.112 42.8333 503.112 37.1667C502.029 37.1667 500.862 37.1667 499.779 37.1667ZM520.862 54.5833C522.029 55.0833 523.195 55.75 524.279 56.4167L529.612 51.9167V37.1667L520.862 41.5833C520.862 45.9167 520.862 50.25 520.862 54.5833ZM520.862 30.1667L529.612 25.75V17.75L524.279 13.25L520.862 15.75C520.862 20.5833 520.862 25.3333 520.862 30.1667ZM520.862 32.8333C520.862 34.8333 520.862 36.8333 520.862 38.9167L529.612 34.5V28.4167L520.862 32.8333ZM547.112 30.1667L555.945 25.6667V17.75L550.612 13.3333L547.112 15.9167C547.112 20.6667 547.112 25.4167 547.112 30.1667ZM547.112 32.8333C547.112 34.8333 547.112 36.8333 547.112 38.9167L555.945 34.4167V28.3333L547.112 32.8333ZM547.112 41.5833C547.112 46.3333 547.112 51.1667 547.112 56H546.279L551.029 59.25L555.945 55.6667V37.0833L547.112 41.5833ZM583.344 31C580.844 32.3333 578.76 33.8333 578.76 36.0833C578.76 41.4167 587.594 43.6667 593.177 44.9167C593.177 42.3333 593.177 39.6667 593.177 37.0833L583.344 31ZM584.76 67.4167C579.427 66.75 573.51 62.6667 573.51 56.5C573.51 52 576.927 47.75 583.177 44.5C579.344 42.8333 576.344 40.4167 576.344 36.5833C576.344 32.9167 579.094 30.8333 581.594 29.5L590.76 24.75L603.01 32.6667L606.427 29.9167L607.844 31.75L603.51 35.25V56.25L607.51 60.25L611.094 57.8333L611.51 59.5L599.927 67.4167L593.51 61.0833L584.76 67.4167ZM593.177 47.4167C590.51 46.8333 587.427 46.0833 584.677 45.0833C584.094 45.9167 583.594 47.3333 583.594 48.9167C583.594 53.6667 586.26 60.25 591.427 60.25C592.01 60.25 592.594 60.1667 593.177 60C593.177 55.8333 593.177 51.5833 593.177 47.4167ZM618.747 71.4167C615.914 70.25 613.581 67.5 613.581 63.5833C613.581 60.1667 614.914 57.0833 621.497 51L615.164 46V34.3333L632.414 24.3333C633.581 26.1667 635.664 28 638.497 28C640.664 28 642.414 26.5 642.664 24.5V24.5833C642.664 24.5833 642.664 24.5833 642.664 24.5H644.997C644.331 30.9167 642.414 35.6667 637.747 40L644.914 45.25V57.8333L628.497 67.8333C627.331 65.9167 625.247 64 622.331 64C620.331 64 618.414 65.0833 618.414 67.1667C618.414 68.0833 618.914 68.8333 619.581 69.1667L618.747 71.4167ZM629.581 47L626.581 49.5833C623.581 52.1667 620.664 54.5833 618.581 57.1667C620.164 55.9167 622.247 55.1667 624.414 55.1667C629.247 55.1667 632.664 58.1667 634.164 61.5833V50.75L629.581 47ZM629.331 44.1667L635.497 38.8333C636.664 37.8333 637.914 36.6667 639.081 35C637.747 35.5833 636.331 35.9167 634.914 35.9167C631.247 35.9167 627.581 34 625.914 29.75V40.5833L629.331 44.1667ZM651.742 31.4167C650.409 31.4167 649.326 32.0833 648.576 32.75L647.742 31.5833L658.492 24.6667C662.409 26.0833 665.076 29.1667 665.076 34.6667V54.6667L670.242 59.6667L674.242 56.75V52.6667V35.5833L669.909 31.75L677.742 24.5L683.242 29.25L685.909 27.0833L687.409 28.9167L683.826 31.8333V51.5833V55.0833C683.909 57.5833 684.492 59.6667 686.076 60.75L689.159 58.25L690.742 60.3333L680.742 67.1667C677.659 67.0833 674.909 64.4167 674.326 59.0833L663.826 67.3333L652.492 57.8333L655.076 55.6667V36.1667C655.076 33.5833 654.242 31.4167 651.742 31.4167ZM725.931 18.6667C725.931 20.25 726.848 21.4167 728.014 21.9167L727.181 23.0833C724.098 21.75 721.514 18.6667 721.514 14.3333C721.514 8.33333 726.598 3.16667 734.681 3.16667C741.764 3.16667 752.764 9.08333 760.431 9.08333C762.181 9.08333 763.931 8.25 763.931 6.41666C763.931 3.5 760.098 3.08333 757.514 2.75V1.16666C765.348 0.583331 771.431 4.83333 771.431 10.9167C771.431 16.9167 766.181 20.1667 760.098 20.1667C760.098 20.1667 760.098 20.1667 760.014 20.1667V30.1667L765.598 35.75L760.014 41.3333V54.0833C764.098 51.3333 767.098 47.25 768.764 43.0833H770.348C770.348 43.3333 770.348 43.6667 770.348 43.9167C770.348 56.5833 759.681 66.75 746.181 66.75C732.598 66.75 719.514 56.1667 719.514 40.75C719.514 30.5 726.848 19.5833 739.181 17.5L740.014 18.75C738.514 19.6667 734.181 22.9167 731.598 28.5833L749.931 20.75V46.0833L735.181 52.25C738.514 55.5 743.098 57.5833 748.431 57.5833C751.931 57.5833 755.014 56.75 757.681 55.4167V41.25L752.264 35.75L757.681 30.25V20C749.848 19 735.348 14.3333 731.431 14.3333C728.598 14.3333 725.931 15.8333 725.931 18.6667ZM730.431 31.4167C729.848 33.4167 729.514 35.6667 729.514 38.0833C729.514 42.6667 731.014 47.0833 733.681 50.5L739.181 48.1667V27.75L730.431 31.4167ZM796.725 57.5L798.725 59.0833L786.725 67.4167L778.725 60.25L775.975 62.25L774.725 60.6667L779.975 57.0833V35.0833L777.142 31.5L773.975 33.5L772.725 31.9167L783.975 24.3333L790.309 31.9167V57.0833L793.142 59.8333L796.725 57.5ZM777.309 13.0833L785.225 6.08333L792.309 14.1667L784.392 21.1667L777.309 13.0833ZM839.673 60.8333L830.507 68.25L822.257 61.0833L825.757 57.8333V37.3333L820.007 32.0833L816.34 34.25V57.8333L819.923 61.0833L811.923 68.25L802.34 60.6667L805.59 57.8333V35.75L802.34 32.1667L799.173 34.1667L798.007 32.5L809.59 24.5833L815.673 31.4167L826.59 24.5833L834.923 31.6667L846.34 24.5833L855.007 32L857.757 29.8333L859.257 31.5833L855.09 35V55.9167L859.007 59.8333L862.59 57.1667V60.25L850.257 68.25L842.007 61.0833L845.507 57.8333V37.3333L839.757 32.0833L835.34 34.75V57L839.673 60.8333ZM864.629 61.6667L863.129 59.8333L867.129 56.6667V34.6667L887.046 24.3333L895.462 37.0833V37.5L877.462 48.6667V52.25L887.462 59.0833L896.629 51.9167L897.879 53.9167L880.712 67.8333L868.296 58.6667L864.629 61.6667ZM877.462 45.8333L885.879 40.5L879.046 30.6667L877.462 31.5833V45.8333ZM905.759 71.4167C902.926 70.25 900.592 67.5 900.592 63.5833C900.592 60.1667 901.926 57.0833 908.509 51L902.176 46V34.3333L919.426 24.3333C920.592 26.1667 922.676 28 925.509 28C927.676 28 929.426 26.5 929.676 24.5V24.5833C929.676 24.5833 929.676 24.5833 929.676 24.5H932.009C931.342 30.9167 929.426 35.6667 924.759 40L931.926 45.25V57.8333L915.509 67.8333C914.342 65.9167 912.259 64 909.342 64C907.342 64 905.426 65.0833 905.426 67.1667C905.426 68.0833 905.926 68.8333 906.592 69.1667L905.759 71.4167ZM916.592 47L913.592 49.5833C910.592 52.1667 907.676 54.5833 905.592 57.1667C907.176 55.9167 909.259 55.1667 911.426 55.1667C916.259 55.1667 919.676 58.1667 921.176 61.5833V50.75L916.592 47ZM916.342 44.1667L922.509 38.8333C923.676 37.8333 924.926 36.6667 926.092 35C924.759 35.5833 923.342 35.9167 921.926 35.9167C918.259 35.9167 914.592 34 912.926 29.75V40.5833L916.342 44.1667Z" fill="#0A000E"/>
</svg>
