<svg width="500" height="300" viewBox="0 0 500 300" fill="none" xmlns="http://www.w3.org/2000/svg">
<rect width="500" height="300" rx="40" fill="white"/>
<path d="M112.75 120V74.9062H123.656L136.469 107.312H136.656L149.469 74.9062H160.375V120H151.969V89.5H151.688L139.531 120H133.594L121.406 89.5H121.156V120H112.75ZM171.844 82.1875C169.094 82.1875 166.969 80.0312 166.969 77.4375C166.969 74.8438 169.094 72.6875 171.844 72.6875C174.594 72.6875 176.719 74.8438 176.719 77.4375C176.719 80.0312 174.594 82.1875 171.844 82.1875ZM167.281 120V86.5H176.406V120H167.281ZM197.844 120.688C187.625 120.688 181.312 114.031 181.312 103.219V103.188C181.312 92.4688 187.719 85.8125 197.75 85.8125C206.844 85.8125 212.625 91.4062 212.969 98.6562V98.875H204.5L204.438 98.5938C203.875 95.4062 201.656 92.9688 197.875 92.9688C193.406 92.9688 190.594 96.8125 190.594 103.219V103.25C190.594 109.812 193.406 113.531 197.906 113.531C201.562 113.531 203.844 111.281 204.469 107.906L204.5 107.625H213V107.812C212.562 115.125 206.781 120.688 197.844 120.688ZM217.406 120V86.5H226.531V92.3438H226.719C227.719 88.2188 230.438 85.8125 234.344 85.8125C235.344 85.8125 236.281 85.9688 236.969 86.1562V94.1875C236.219 93.875 234.969 93.6875 233.656 93.6875C229.156 93.6875 226.531 96.375 226.531 101.25V120H217.406ZM254.969 120.688C244.781 120.688 238.375 114.156 238.375 103.25V103.188C238.375 92.4062 244.938 85.8125 254.938 85.8125C264.969 85.8125 271.562 92.3438 271.562 103.188V103.25C271.562 114.188 265.094 120.688 254.969 120.688ZM255 113.531C259.438 113.531 262.281 109.781 262.281 103.25V103.188C262.281 96.7188 259.375 92.9688 254.938 92.9688C250.531 92.9688 247.656 96.7188 247.656 103.188V103.25C247.656 109.812 250.5 113.531 255 113.531ZM290.062 120.688C280.781 120.688 275.625 116.406 274.906 110.062L274.875 109.781H283.781L283.844 110.062C284.438 112.688 286.406 114.219 290.062 114.219C293.5 114.219 295.594 112.875 295.594 110.719V110.688C295.594 108.906 294.469 107.875 291.188 107.156L285.5 105.969C279 104.594 275.719 101.344 275.719 96.3438V96.3125C275.719 89.9375 281.219 85.8125 289.75 85.8125C298.656 85.8125 303.625 90.5312 303.844 96.4062V96.7188H295.438L295.406 96.4688C295.094 94.0625 293.125 92.25 289.75 92.25C286.594 92.25 284.625 93.6562 284.625 95.8125V95.8438C284.625 97.5625 285.781 98.6875 289.156 99.4062L294.844 100.625C301.844 102.094 304.719 104.844 304.719 109.781V109.812C304.719 116.375 298.688 120.688 290.062 120.688ZM324.594 120.688C314.406 120.688 308 114.156 308 103.25V103.188C308 92.4062 314.562 85.8125 324.562 85.8125C334.594 85.8125 341.188 92.3438 341.188 103.188V103.25C341.188 114.188 334.719 120.688 324.594 120.688ZM324.625 113.531C329.062 113.531 331.906 109.781 331.906 103.25V103.188C331.906 96.7188 329 92.9688 324.562 92.9688C320.156 92.9688 317.281 96.7188 317.281 103.188V103.25C317.281 109.812 320.125 113.531 324.625 113.531ZM348.344 120V93.375H343.781V86.5H348.344V83.8125C348.344 77.25 351.469 74.2188 359.375 74.2188C361.062 74.2188 362.906 74.375 363.969 74.5938V80.625C363.344 80.5 362.469 80.4688 361.625 80.4688C358.594 80.4688 357.25 81.75 357.25 84.1562V86.5H363.906V93.375H357.469V120H348.344ZM382.031 120.688C374.594 120.688 371.094 117.812 371.094 110.625V93.375H366.438V86.5H371.094V78.3125H380.312V86.5H386.438V93.375H380.312V109.625C380.312 112.75 381.719 113.812 384.469 113.812C385.281 113.812 385.875 113.719 386.438 113.656V120.344C385.406 120.5 383.938 120.688 382.031 120.688Z" fill="#002232"/>
<path d="M125.221 177.537C116.305 177.537 110.676 171.393 110.676 161.488V161.467C110.676 151.562 116.326 145.461 125.221 145.461C132.354 145.461 137.596 149.908 138.412 156.225L138.434 156.439H132.998L132.891 156.031C131.988 152.486 129.26 150.273 125.221 150.273C119.807 150.273 116.348 154.592 116.348 161.467V161.488C116.348 168.385 119.828 172.725 125.221 172.725C129.174 172.725 131.945 170.598 132.955 166.773L133.02 166.559H138.455L138.412 166.773C137.617 173.133 132.354 177.537 125.221 177.537ZM151.466 177V145.998H171.532V150.66H157.009V159.018H170.737V163.508H157.009V172.338H171.532V177H151.466ZM185.145 177V145.998H197.52C204.137 145.998 208.176 149.672 208.176 155.666V155.709C208.176 159.877 205.942 163.25 202.332 164.561L209.1 177H202.784L196.682 165.398H190.688V177H185.145ZM190.688 161.016H196.94C200.442 161.016 202.504 159.082 202.504 155.752V155.709C202.504 152.465 200.313 150.488 196.832 150.488H190.688V161.016ZM229.029 177V150.66H219.748V145.998H243.81V150.66H234.55V177H229.029ZM256.413 177V145.998H261.956V177H256.413ZM276.213 177V145.998H295.979V150.66H281.756V159.834H294.754V164.346H281.756V177H276.213ZM308.818 177V145.998H314.361V177H308.818ZM328.618 177V145.998H348.684V150.66H334.161V159.018H347.889V163.508H334.161V172.338H348.684V177H328.618ZM362.296 177V145.998H373.619C382.857 145.998 388.357 151.584 388.357 161.381V161.424C388.357 171.242 382.9 177 373.619 177H362.296ZM367.839 172.316H373.039C379.269 172.316 382.707 168.514 382.707 161.445V161.402C382.707 154.484 379.205 150.682 373.039 150.682H367.839V172.316Z" fill="#002232"/>
<path d="M110.798 234V213.567H118.671C122.806 213.567 125.624 216.3 125.624 220.392V220.42C125.624 224.499 122.806 227.246 118.671 227.246H114.452V234H110.798ZM117.765 216.555H114.452V224.3H117.765C120.385 224.3 121.914 222.884 121.914 220.435V220.406C121.914 217.957 120.385 216.555 117.765 216.555ZM127.946 234V218.99H131.472V221.582H131.543C132.01 219.769 133.256 218.679 134.984 218.679C135.423 218.679 135.833 218.75 136.103 218.82V222.006C135.805 221.893 135.267 221.808 134.672 221.808C132.676 221.808 131.472 223.068 131.472 225.292V234H127.946ZM143.99 234.297C139.572 234.297 136.726 231.352 136.726 226.495V226.467C136.726 221.652 139.614 218.679 143.976 218.679C148.351 218.679 151.254 221.624 151.254 226.467V226.495C151.254 231.366 148.394 234.297 143.99 234.297ZM144.004 231.451C146.227 231.451 147.657 229.639 147.657 226.495V226.467C147.657 223.337 146.213 221.539 143.976 221.539C141.781 221.539 140.322 223.352 140.322 226.467V226.495C140.322 229.653 141.752 231.451 144.004 231.451ZM154.497 234V221.709H152.443V218.99H154.497V217.56C154.497 214.629 155.884 213.27 159.141 213.27C159.835 213.27 160.585 213.326 161.024 213.411V215.875C160.741 215.833 160.345 215.804 159.962 215.804C158.589 215.804 157.952 216.441 157.952 217.659V218.99H160.968V221.709H158.022V234H154.497ZM168.699 234.297C164.196 234.297 161.478 231.31 161.478 226.538V226.523C161.478 221.794 164.239 218.679 168.529 218.679C172.82 218.679 175.482 221.695 175.482 226.226V227.359H164.975C165.032 229.993 166.476 231.55 168.77 231.55C170.526 231.55 171.673 230.616 172.013 229.61L172.041 229.511H175.34L175.298 229.667C174.831 231.975 172.622 234.297 168.699 234.297ZM168.572 221.44C166.703 221.44 165.301 222.7 165.018 225.008H172.055C171.8 222.629 170.441 221.44 168.572 221.44ZM183.624 234.297C179.688 234.297 177.436 232.428 177.125 229.639L177.11 229.511H180.58L180.608 229.639C180.877 230.927 181.854 231.692 183.638 231.692C185.352 231.692 186.385 230.998 186.385 229.894V229.879C186.385 228.973 185.861 228.463 184.304 228.109L181.812 227.557C178.937 226.92 177.493 225.518 177.493 223.295V223.281C177.493 220.534 179.886 218.679 183.511 218.679C187.249 218.679 189.43 220.732 189.557 223.323L189.571 223.479H186.286L186.272 223.366C186.116 222.162 185.153 221.284 183.511 221.284C181.953 221.284 180.976 222.006 180.976 223.111V223.125C180.976 223.989 181.557 224.555 183.114 224.909L185.621 225.461C188.722 226.155 189.925 227.373 189.925 229.554V229.568C189.925 232.4 187.306 234.297 183.624 234.297ZM198.039 234.297C194.103 234.297 191.851 232.428 191.54 229.639L191.525 229.511H194.995L195.023 229.639C195.292 230.927 196.269 231.692 198.053 231.692C199.767 231.692 200.8 230.998 200.8 229.894V229.879C200.8 228.973 200.276 228.463 198.719 228.109L196.227 227.557C193.352 226.92 191.908 225.518 191.908 223.295V223.281C191.908 220.534 194.301 218.679 197.926 218.679C201.664 218.679 203.845 220.732 203.972 223.323L203.986 223.479H200.701L200.687 223.366C200.531 222.162 199.568 221.284 197.926 221.284C196.368 221.284 195.391 222.006 195.391 223.111V223.125C195.391 223.989 195.972 224.555 197.529 224.909L200.036 225.461C203.137 226.155 204.34 227.373 204.34 229.554V229.568C204.34 232.4 201.721 234.297 198.039 234.297ZM208.461 216.838C207.356 216.838 206.493 215.96 206.493 214.912C206.493 213.836 207.356 212.972 208.461 212.972C209.565 212.972 210.415 213.836 210.415 214.912C210.415 215.96 209.565 216.838 208.461 216.838ZM206.691 234V218.99H210.217V234H206.691ZM219.86 234.297C215.442 234.297 212.596 231.352 212.596 226.495V226.467C212.596 221.652 215.484 218.679 219.846 218.679C224.221 218.679 227.124 221.624 227.124 226.467V226.495C227.124 231.366 224.264 234.297 219.86 234.297ZM219.874 231.451C222.097 231.451 223.527 229.639 223.527 226.495V226.467C223.527 223.337 222.083 221.539 219.846 221.539C217.651 221.539 216.192 223.352 216.192 226.467V226.495C216.192 229.653 217.623 231.451 219.874 231.451ZM229.39 234V218.99H232.916V221.341H232.986C233.765 219.727 235.294 218.679 237.574 218.679C240.874 218.679 242.757 220.803 242.757 224.286V234H239.231V224.994C239.231 222.856 238.24 221.652 236.229 221.652C234.204 221.652 232.916 223.125 232.916 225.292V234H229.39ZM250.021 234.255C247.019 234.255 244.994 232.4 244.994 229.724V229.695C244.994 227.033 247.062 225.433 250.701 225.207L254.623 224.966V223.932C254.623 222.417 253.632 221.497 251.848 221.497C250.177 221.497 249.157 222.275 248.931 223.38L248.902 223.507H245.631L245.646 223.337C245.858 220.675 248.166 218.679 251.975 218.679C255.728 218.679 258.149 220.661 258.149 223.677V234H254.623V231.692H254.538C253.674 233.264 252.003 234.255 250.021 234.255ZM248.506 229.582C248.506 230.814 249.525 231.564 251.069 231.564C253.094 231.564 254.623 230.219 254.623 228.435V227.302L251.196 227.515C249.455 227.628 248.506 228.378 248.506 229.568V229.582ZM261.094 234V213.567H264.62V234H261.094Z" fill="#002232"/>
</svg>
